{
  "accessors": [
    {
      "bufferView": 3,
      "componentType": 5126,
      "count": 618,
      "max": [
        0.6594263315200806,
        1.6585866212844849,
        0.380515456199646
      ],
      "min": [
        -0.6594263315200806,
        0.0,
        -0.5614945888519287
      ],
      "type": "VEC3"
    },
    {
      "bufferView": 3,
      "byteOffset": 7416,
      "componentType": 5126,
      "count": 618,
      "max": [
        1.0,
        1.0,
        1.0
      ],
      "min": [
        -1.0,
        -1.0,
        -1.0
      ],
      "type": "VEC3"
    },
    {
      "bufferView": 2,
      "componentType": 5126,
      "count": 618,
      "max": [
        0.998165488243103,
        0.999553382396698
      ],
      "min": [
        0.0007572940667159855,
        0.004613105207681656
      ],
      "type": "VEC2"
    },
    {
      "bufferView": 1,
      "componentType": 5125,
      "count": 1629,
      "type": "SCALAR"
    },
    {
      "bufferView": 5,
      "componentType": 5126,
      "count": 28,
      "max": [
        1.0,
        0.9956518411636353,
        0.9995227456092834,
        0.0,
        0.9766380190849304,
        1.0,
        0.9316167831420898,
        0.0,
        0.9995356202125549,
        0.5755766034126282,
        1.0,
        0.0,
        0.9292522668838501,
        0.9444504976272583,
        0.4280601143836975,
        1.0
      ],
      "min": [
        -0.9799903631210327,
        -0.9956518411636353,
        -0.9995228052139282,
        0.0,
        -0.97663813829422,
        -0.9999867081642151,
        -0.19368888437747955,
        0.0,
        -0.9995357394218445,
        -0.38749250769615173,
        -0.9235816597938538,
        0.0,
        -0.9292520880699158,
        -1.0872949361801147,
        -0.5866100192070007,
        1.0
      ],
      "type": "MAT4"
    },
    {
      "bufferView": 0,
      "componentType": 5123,
      "count": 618,
      "type": "VEC4"
    },
    {
      "bufferView": 4,
      "componentType": 5126,
      "count": 618,
      "max": [
        1.0,
        0.5,
        0.203125,
        0.0
      ],
      "min": [
        0.5,
        0.0,
        0.0,
        0.0
      ],
      "type": "VEC4"
    }
  ],
  "asset": {
    "extras": {
      "author": "pyr0xene (https://sketchfab.com/pyr0xene)",
      "license": "CC-BY-NC-4.0 (http://creativecommons.org/licenses/by-nc/4.0/)",
      "source": "https://sketchfab.com/3d-models/bijou-2f446025070f4db18ad9d7214a81063e",
      "title": "bijou"
    },
    "generator": "Sketchfab-15.31.0",
    "version": "2.0"
  },
  "bufferViews": [
    {
      "buffer": 0,
      "byteLength": 4944,
      "byteStride": 8,
      "name": "shortBufferViews",
      "target": 34962
    },
    {
      "buffer": 0,
      "byteLength": 6516,
      "byteOffset": 4944,
      "name": "floatBufferViews",
      "target": 34963
    },
    {
      "buffer": 0,
      "byteLength": 4944,
      "byteOffset": 11460,
      "byteStride": 8,
      "name": "floatBufferViews",
      "target": 34962
    },
    {
      "buffer": 0,
      "byteLength": 14832,
      "byteOffset": 16404,
      "byteStride": 12,
      "name": "floatBufferViews",
      "target": 34962
    },
    {
      "buffer": 0,
      "byteLength": 9888,
      "byteOffset": 31236,
      "byteStride": 16,
      "name": "floatBufferViews",
      "target": 34962
    },
    {
      "buffer": 0,
      "byteLength": 1792,
      "byteOffset": 41124,
      "name": "floatBufferViews"
    }
  ],
  "buffers": [
    {
      "byteLength": 42916,
      "uri": ".bin"
    }
  ],
  "extensionsUsed": [
    "KHR_materials_unlit"
  ],
  "images": [
    {
      "uri": "textures/bijou_mat_baseColor.png"
    },
    {
      "uri": "textures/bijou_mat_emissive.png"
    }
  ],
  "materials": [
    {
      "alphaMode": "MASK",
      "doubleSided": true,
      "emissiveFactor": [
        1.0,
        1.0,
        1.0
      ],
      "emissiveTexture": {
        "index": 1
      },
      "extensions": {
        "KHR_materials_unlit": {}
      },
      "name": "bijou_mat",
      "pbrMetallicRoughness": {
        "baseColorFactor": [
          0.0,
          0.0,
          0.0,
          1.0
        ],
        "baseColorTexture": {
          "index": 0
        },
        "metallicFactor": 0.0
      }
    }
  ],
  "meshes": [
    {
      "name": "Object_0",
      "primitives": [
        {
          "attributes": {
            "JOINTS_0": 5,
            "NORMAL": 1,
            "POSITION": 0,
            "TEXCOORD_0": 2,
            "TEXCOORD_1": 2,
            "WEIGHTS_0": 6
          },
          "indices": 3,
          "material": 0,
          "mode": 4
        }
      ]
    }
  ],
  "nodes": [
    {
      "children": [
        1
      ],
      "matrix": [
        1.0,
        0.0,
        0.0,
        0.0,
        0.0,
        2.220446049250313e-16,
        -1.0,
        0.0,
        0.0,
        1.0,
        2.220446049250313e-16,
        0.0,
        0.0,
        0.0,
        0.0,
        1.0
      ],
      "name": "Sketchfab_model"
    },
    {
      "children": [
        2
      ],
      "name": "root"
    },
    {
      "children": [
        3
      ],
      "matrix": [
        1.0,
        0.0,
        0.0,
        0.0,
        0.0,
        2.220446049250313e-16,
        1.0,
        0.0,
        0.0,
        -1.0,
        2.220446049250313e-16,
        0.0,
        0.0,
        0.0,
        0.0,
        1.0
      ],
      "name": "GLTF_SceneRootNode"
    },
    {
      "children": [
        4
      ],
      "name": "bijou_armature_28"
    },
    {
      "children": [
        5,
        7,
        6
      ],
      "name": "GLTF_created_0"
    },
    {
      "children": [
        8
      ],
      "name": "GLTF_created_0_rootJoint"
    },
    {
      "name": "bijou_27"
    },
    {
      "mesh": 0,
      "name": "Object_7",
      "skin": 0
    },
    {
      "children": [
        9,
        27,
        31
      ],
      "name": "Bone_26",
      "rotation": [
        0.008476974442601204,
        0.0,
        0.0,
        0.9999640583992004
      ],
      "translation": [
        -2.0262812261417906e-10,
        0.6101741790771484,
        0.08429473638534546
      ]
    },
    {
      "children": [
        10,
        16,
        22,
        23,
        24
      ],
      "name": "Bone.001_17",
      "rotation": [
        -0.20594777166843414,
        1.1590613269163441e-07,
        -2.528600795415059e-08,
        0.9785630106925964
      ],
      "scale": [
        1.0,
        1.0000001192092896,
        1.0
      ],
      "translation": [
        -1.4266503085770717e-14,
        0.201536163687706,
        -3.249635227575709e-09
      ]
    },
    {
      "children": [
        11,
        14
      ],
      "name": "Bone.001_L_5",
      "rotation": [
        0.08378365635871887,
        0.1281755566596985,
        -0.831493079662323,
        0.5340137481689453
      ],
      "scale": [
        0.9999999403953552,
        1.0,
        1.0
      ],
      "translation": [
        -4.052515545360791e-10,
        0.2320137917995453,
        -3.3527612686157227e-08
      ]
    },
    {
      "children": [
        12
      ],
      "name": "Bone.001_L.001_2",
      "rotation": [
        -0.007945322431623936,
        0.027297858148813248,
        -0.1727789044380188,
        0.9845502376556396
      ],
      "scale": [
        0.9999999403953552,
        0.9999997615814209,
        1.0
      ],
      "translation": [
        1.4189465957770153e-07,
        0.16177451610565186,
        7.403069268718809e-10
      ]
    },
    {
      "children": [
        13
      ],
      "name": "Bone.001_L.002_1",
      "rotation": [
        0.025856271386146545,
        -0.01065913401544094,
        0.0165933258831501,
        0.999471127986908
      ],
      "scale": [
        0.9999999403953552,
        0.9999998807907104,
        0.9999999403953552
      ],
      "translation": [
        9.770069908654477e-08,
        0.19795067608356476,
        3.858102726184143e-09
      ]
    },
    {
      "name": "Bone.001_L.003_0",
      "rotation": [
        -0.019121969118714333,
        0.10900614410638809,
        0.1077258437871933,
        0.9880017042160034
      ],
      "scale": [
        0.9999998807907104,
        0.9999997615814209,
        1.0
      ],
      "translation": [
        2.9576600724112723e-08,
        0.1691487431526184,
        4.2615877493545895e-10
      ]
    },
    {
      "children": [
        15
      ],
      "name": "Bone.003_L_4",
      "rotation": [
        -0.027197664603590965,
        0.1399223953485489,
        0.16474303603172302,
        0.9759824872016907
      ],
      "scale": [
        0.9999997615814209,
        0.9999998211860657,
        0.9999998211860657
      ],
      "translation": [
        -0.09563103318214417,
        0.32238322496414185,
        -0.2438950538635254
      ]
    },
    {
      "name": "Bone.003_L.002_3",
      "rotation": [
        0.12976066768169403,
        0.002230897080153227,
        -0.6664784550666809,
        0.73414146900177
      ],
      "scale": [
        1.0000001192092896,
        1.0,
        1.0
      ],
      "translation": [
        -9.322182847881777e-08,
        0.20137150585651398,
        1.1100206975811489e-08
      ]
    },
    {
      "children": [
        17,
        20
      ],
      "name": "Bone.001_R_11",
      "rotation": [
        0.08378345519304276,
        -0.12817570567131042,
        0.831493079662323,
        0.5340136885643005
      ],
      "scale": [
        1.0000001192092896,
        0.9999998807907104,
        1.0000001192092896
      ],
      "translation": [
        2.7106272781907137e-08,
        0.23201380670070648,
        -2.9841917381645544e-08
      ]
    },
    {
      "children": [
        18
      ],
      "name": "Bone.001_R.001_8",
      "rotation": [
        -0.00794531125575304,
        -0.02729787491261959,
        0.1727788895368576,
        0.9845502376556396
      ],
      "scale": [
        1.0,
        0.9999999403953552,
        1.0
      ],
      "translation": [
        -9.36763626668835e-08,
        0.16177450120449066,
        3.6446627937891662e-09
      ]
    },
    {
      "children": [
        19
      ],
      "name": "Bone.001_R.002_7",
      "rotation": [
        0.025856267660856247,
        0.010659148916602135,
        -0.016593335196375847,
        0.999471127986908
      ],
      "scale": [
        1.0,
        0.9999999403953552,
        0.9999999403953552
      ],
      "translation": [
        -1.263671123297172e-07,
        0.19795069098472595,
        -6.65698163260231e-10
      ]
    },
    {
      "name": "Bone.001_R.003_6",
      "rotation": [
        -0.01912197284400463,
        -0.10900615900754929,
        -0.10772575438022614,
        0.9880016446113586
      ],
      "scale": [
        0.9999997615814209,
        0.9999998211860657,
        0.9999999403953552
      ],
      "translation": [
        5.786650092431955e-08,
        0.1691487431526184,
        1.716905551063519e-08
      ]
    },
    {
      "children": [
        21
      ],
      "name": "Bone.003_R_10",
      "rotation": [
        -0.027197664603590965,
        -0.13992241024971008,
        -0.16474302113056183,
        0.9759824872016907
      ],
      "scale": [
        0.9999998807907104,
        0.9999999403953552,
        1.0
      ],
      "translation": [
        0.09563096612691879,
        0.32238325476646423,
        -0.24389512836933136
      ]
    },
    {
      "name": "Bone.003_R.002_9",
      "rotation": [
        0.12976063787937164,
        -0.002230907091870904,
        0.6664783954620361,
        0.7341415286064148
      ],
      "scale": [
        1.0000001192092896,
        1.0,
        1.0000001192092896
      ],
      "translation": [
        -3.064535647467892e-08,
        0.20137149095535278,
        -6.18679107944331e-09
      ]
    },
    {
      "name": "Bone_L.004_12",
      "rotation": [
        -0.6822026371955872,
        0.1398959904909134,
        -0.7040316462516785,
        0.13916972279548645
      ],
      "scale": [
        1.0,
        1.0,
        1.0000001192092896
      ],
      "translation": [
        0.3588918149471283,
        -0.11779720336198807,
        -0.012585112825036049
      ]
    },
    {
      "name": "Bone_R.004_13",
      "rotation": [
        -0.6822027564048767,
        -0.13989607989788055,
        0.7040315270423889,
        0.1391696035861969
      ],
      "scale": [
        1.0,
        1.0,
        1.0000001192092896
      ],
      "translation": [
        -0.3588917553424835,
        -0.11779721081256866,
        -0.012585270218551159
      ]
    },
    {
      "children": [
        25
      ],
      "name": "Bone.002_16",
      "rotation": [
        0.19764506816864014,
        -1.1354717344147502e-07,
        2.8169306887093626e-08,
        0.9802736639976501
      ],
      "scale": [
        1.0,
        1.0,
        1.0000001192092896
      ],
      "translation": [
        5.162537064506978e-15,
        0.2320137917995453,
        -3.3527612686157227e-08
      ]
    },
    {
      "children": [
        26
      ],
      "name": "Bone.003_15",
      "rotation": [
        4.0210313661342663e-16,
        1.159265963224243e-07,
        -3.28268612292959e-09,
        1.0
      ],
      "translation": [
        5.342948306008566e-16,
        0.06172633171081543,
        4.5536484626946286e-17
      ]
    },
    {
      "name": "Bone.004_14",
      "rotation": [
        -0.9807094931602478,
        1.8112977955074376e-14,
        -2.338194491358081e-07,
        0.19547095894813538
      ],
      "scale": [
        1.0,
        1.0000001192092896,
        1.0000005960464478
      ],
      "translation": [
        4.261062613863942e-08,
        0.00691651739180088,
        -0.17872191965579987
      ]
    },
    {
      "children": [
        28
      ],
      "name": "Bone_L_21",
      "rotation": [
        -0.6672848463058472,
        -0.42516306042671204,
        -0.46210774779319763,
        0.4005293548107147
      ],
      "scale": [
        0.9999997615814209,
        0.9999998807907104,
        1.0
      ],
      "translation": [
        2.4792322861344473e-08,
        -1.5315372081659007e-08,
        -1.755326195507223e-08
      ]
    },
    {
      "children": [
        29
      ],
      "name": "Bone_L.001_20",
      "rotation": [
        -0.6001161336898804,
        0.18426573276519775,
        0.0553194023668766,
        0.7764319181442261
      ],
      "scale": [
        1.000000238418579,
        1.0,
        1.0000001192092896
      ],
      "translation": [
        -1.0812554407380048e-08,
        0.13617709279060364,
        6.054580836689638e-08
      ]
    },
    {
      "children": [
        30
      ],
      "name": "Bone_L.002_19",
      "rotation": [
        -0.019469082355499268,
        -0.028204748407006264,
        -0.04930642992258072,
        0.9981955289840698
      ],
      "scale": [
        0.9999998807907104,
        0.9999998211860657,
        1.0
      ],
      "translation": [
        -4.460182445598093e-09,
        0.26023104786872864,
        5.504938727085573e-09
      ]
    },
    {
      "name": "Bone_L.003_18",
      "rotation": [
        0.1110367625951767,
        0.20966589450836182,
        -0.29702699184417725,
        0.924924910068512
      ],
      "scale": [
        1.000000238418579,
        1.0,
        1.0000001192092896
      ],
      "translation": [
        -7.867644313819255e-10,
        0.24148325622081757,
        -1.28602684057455e-08
      ]
    },
    {
      "children": [
        32
      ],
      "name": "Bone_R_25",
      "rotation": [
        -0.6672848463058472,
        0.42516306042671204,
        0.46210774779319763,
        0.4005293548107147
      ],
      "scale": [
        0.9999997615814209,
        0.9999998807907104,
        1.0
      ],
      "translation": [
        -2.438706658836054e-08,
        -1.5315372081659007e-08,
        -1.755326195507223e-08
      ]
    },
    {
      "children": [
        33
      ],
      "name": "Bone_R.001_24",
      "rotation": [
        -0.6001161336898804,
        -0.18426573276519775,
        -0.0553194023668766,
        0.7764319181442261
      ],
      "scale": [
        1.000000238418579,
        1.0,
        1.0000001192092896
      ],
      "translation": [
        1.0812554407380048e-08,
        0.13617709279060364,
        6.054580836689638e-08
      ]
    },
    {
      "children": [
        34
      ],
      "name": "Bone_R.002_23",
      "rotation": [
        -0.019469082355499268,
        0.028204748407006264,
        0.04930642992258072,
        0.9981955289840698
      ],
      "scale": [
        0.9999998807907104,
        0.9999998211860657,
        1.0
      ],
      "translation": [
        4.460182445598093e-09,
        0.26023104786872864,
        5.504938727085573e-09
      ]
    },
    {
      "name": "Bone_R.003_22",
      "rotation": [
        0.1110367625951767,
        -0.20966589450836182,
        0.29702699184417725,
        0.924924910068512
      ],
      "scale": [
        1.000000238418579,
        1.0,
        1.0000001192092896
      ],
      "translation": [
        7.867644313819255e-10,
        0.24148325622081757,
        -1.28602684057455e-08
      ]
    }
  ],
  "samplers": [
    {
      "magFilter": 9728,
      "minFilter": 9728,
      "wrapS": 10497,
      "wrapT": 10497
    }
  ],
  "scene": 0,
  "scenes": [
    {
      "name": "Sketchfab_Scene",
      "nodes": [
        0
      ]
    }
  ],
  "skins": [
    {
      "inverseBindMatrices": 4,
      "joints": [
        5,
        8,
        9,
        10,
        11,
        12,
        13,
        14,
        15,
        16,
        17,
        18,
        19,
        20,
        21,
        22,
        23,
        24,
        25,
        26,
        27,
        28,
        29,
        30,
        31,
        32,
        33,
        34
      ],
      "skeleton": 5
    }
  ],
  "textures": [
    {
      "sampler": 0,
      "source": 0
    },
    {
      "sampler": 0,
      "source": 1
    }
  ]
}
